{"images":[{"uri":"Army_Alpha_01.png","name":"Army_Alpha_01.png"},{"uri":"blend_02.jpg","name":"blend_02.jpg"},{"uri":"Army_Ground_D02.jpg","name":"Army_Ground_D02.jpg"},{"uri":"blend_03.jpg","name":"blend_03.jpg"},{"uri":"Army_Ground_D01.jpg","name":"Army_Ground_D01.jpg"},{"uri":"tank3.jpg","name":"tank3.jpg"},{"uri":"Army_Diffeus_01.jpg","name":"Army_Diffeus_01.jpg"}],"accessors":[{"componentType":5126,"bufferView":0,"count":1,"type":"SCALAR","byteOffset":0},{"componentType":5123,"bufferView":1,"count":216,"type":"SCALAR","byteOffset":0},{"componentType":5123,"bufferView":1,"count":1659,"type":"SCALAR","byteOffset":432},{"componentType":5123,"bufferView":1,"count":4407,"type":"SCALAR","byteOffset":3752},{"componentType":5123,"bufferView":1,"count":2886,"type":"SCALAR","byteOffset":12568},{"componentType":5123,"bufferView":1,"count":4824,"type":"SCALAR","byteOffset":18340},{"componentType":5123,"bufferView":1,"count":19224,"type":"SCALAR","byteOffset":27988},{"componentType":5123,"bufferView":1,"count":672,"type":"SCALAR","byteOffset":66436},{"componentType":5123,"bufferView":1,"count":3000,"type":"SCALAR","byteOffset":67780},{"componentType":5123,"bufferView":1,"count":4224,"type":"SCALAR","byteOffset":73780},{"componentType":5123,"bufferView":1,"count":5301,"type":"SCALAR","byteOffset":82228},{"componentType":5123,"bufferView":1,"count":14736,"type":"SCALAR","byteOffset":92832},{"componentType":5123,"bufferView":1,"count":1200,"type":"SCALAR","byteOffset":122304},{"componentType":5123,"bufferView":1,"count":2064,"type":"SCALAR","byteOffset":124704},{"componentType":5123,"bufferView":1,"count":2604,"type":"SCALAR","byteOffset":128832},{"componentType":5123,"bufferView":1,"count":3528,"type":"SCALAR","byteOffset":134040},{"componentType":5123,"bufferView":1,"count":8736,"type":"SCALAR","byteOffset":141096},{"componentType":5123,"bufferView":1,"count":6147,"type":"SCALAR","byteOffset":158568},{"componentType":5123,"bufferView":1,"count":1608,"type":"SCALAR","byteOffset":170864},{"componentType":5123,"bufferView":1,"count":1542,"type":"SCALAR","byteOffset":174080},{"componentType":5123,"bufferView":1,"count":1092,"type":"SCALAR","byteOffset":177164},{"componentType":5123,"bufferView":1,"count":6195,"type":"SCALAR","byteOffset":179348},{"componentType":5123,"bufferView":1,"count":7068,"type":"SCALAR","byteOffset":191740},{"componentType":5123,"bufferView":1,"count":2790,"type":"SCALAR","byteOffset":205876},{"componentType":5123,"bufferView":1,"count":69,"type":"SCALAR","byteOffset":211456},{"componentType":5123,"bufferView":1,"count":30,"type":"SCALAR","byteOffset":211596},{"componentType":5123,"bufferView":1,"count":111,"type":"SCALAR","byteOffset":211656},{"componentType":5123,"bufferView":1,"count":102,"type":"SCALAR","byteOffset":211880},{"componentType":5123,"bufferView":1,"count":6,"type":"SCALAR","byteOffset":212084},{"componentType":5123,"bufferView":1,"count":60,"type":"SCALAR","byteOffset":212096},{"componentType":5123,"bufferView":1,"count":54,"type":"SCALAR","byteOffset":212216},{"componentType":5123,"bufferView":1,"count":69,"type":"SCALAR","byteOffset":212324},{"componentType":5123,"bufferView":1,"count":135,"type":"SCALAR","byteOffset":212464},{"componentType":5123,"bufferView":1,"count":36,"type":"SCALAR","byteOffset":212736},{"componentType":5123,"bufferView":1,"count":30,"type":"SCALAR","byteOffset":212808},{"componentType":5123,"bufferView":1,"count":429,"type":"SCALAR","byteOffset":212868},{"componentType":5123,"bufferView":1,"count":4404,"type":"SCALAR","byteOffset":213728},{"componentType":5123,"bufferView":1,"count":3204,"type":"SCALAR","byteOffset":222536},{"componentType":5123,"bufferView":1,"count":2229,"type":"SCALAR","byteOffset":228944},{"componentType":5123,"bufferView":1,"count":276,"type":"SCALAR","byteOffset":233404},{"componentType":5123,"bufferView":1,"count":7422,"type":"SCALAR","byteOffset":233956},{"componentType":5123,"bufferView":1,"count":3936,"type":"SCALAR","byteOffset":248800},{"componentType":5123,"bufferView":1,"count":7785,"type":"SCALAR","byteOffset":256672},{"componentType":5123,"bufferView":1,"count":2256,"type":"SCALAR","byteOffset":272244},{"componentType":5123,"bufferView":1,"count":2256,"type":"SCALAR","byteOffset":276756},{"componentType":5123,"bufferView":1,"count":2256,"type":"SCALAR","byteOffset":281268},{"componentType":5123,"bufferView":1,"count":2256,"type":"SCALAR","byteOffset":285780},{"componentType":5123,"bufferView":1,"count":318,"type":"SCALAR","byteOffset":290292},{"componentType":5123,"bufferView":1,"count":444,"type":"SCALAR","byteOffset":290928},{"componentType":5123,"bufferView":1,"count":372,"type":"SCALAR","byteOffset":291816},{"componentType":5123,"bufferView":1,"count":336,"type":"SCALAR","byteOffset":292560},{"componentType":5126,"max":[118.26954650878906,142.75628662109375,23.749408721923828],"bufferView":2,"count":144,"type":"VEC3","min":[36.42848587036133,142.75624084472656,19.6754093170166],"byteOffset":0},{"componentType":5126,"bufferView":2,"count":144,"type":"VEC3","byteOffset":12},{"componentType":5126,"bufferView":2,"count":144,"type":"VEC4","byteOffset":24},{"componentType":5126,"bufferView":2,"count":144,"type":"VEC2","byteOffset":40},{"componentType":5126,"bufferView":2,"count":144,"type":"VEC2","byteOffset":48},{"componentType":5126,"max":[9.349491119384766,11.047758102416992,-1.0824074745178223],"bufferView":3,"count":1505,"type":"VEC3","min":[-1.026729941368103,1.022605061531067,-2.7222890853881836],"byteOffset":0},{"componentType":5126,"bufferView":3,"count":1505,"type":"VEC3","byteOffset":12},{"componentType":5126,"bufferView":3,"count":1505,"type":"VEC4","byteOffset":24},{"componentType":5126,"bufferView":3,"count":1505,"type":"VEC2","byteOffset":40},{"componentType":5126,"bufferView":3,"count":1505,"type":"VEC2","byteOffset":48},{"componentType":5126,"max":[20.20535659790039,15.246953010559082,-1.5413039922714233],"bufferView":4,"count":3972,"type":"VEC3","min":[12.317397117614746,6.350119590759277,-2.140871524810791],"byteOffset":0},{"componentType":5126,"bufferView":4,"count":3972,"type":"VEC3","byteOffset":12},{"componentType":5126,"bufferView":4,"count":3972,"type":"VEC4","byteOffset":24},{"componentType":5126,"bufferView":4,"count":3972,"type":"VEC2","byteOffset":40},{"componentType":5126,"bufferView":4,"count":3972,"type":"VEC2","byteOffset":48},{"componentType":5126,"max":[12.844352722167969,3.8269898891448975,-1.2587876319885254],"bufferView":5,"count":2148,"type":"VEC3","min":[6.157107830047607,-5.115787506103516,-3.051208972930908],"byteOffset":0},{"componentType":5126,"bufferView":5,"count":2148,"type":"VEC3","byteOffset":12},{"componentType":5126,"bufferView":5,"count":2148,"type":"VEC4","byteOffset":24},{"componentType":5126,"bufferView":5,"count":2148,"type":"VEC2","byteOffset":40},{"componentType":5126,"bufferView":5,"count":2148,"type":"VEC2","byteOffset":48},{"componentType":5126,"max":[62.71415710449219,39.30942153930664,2.591264009475708],"bufferView":6,"count":3192,"type":"VEC3","min":[-8.225626945495605,-20.40828514099121,-4.911561489105225],"byteOffset":0},{"componentType":5126,"bufferView":6,"count":3192,"type":"VEC3","byteOffset":12},{"componentType":5126,"bufferView":6,"count":3192,"type":"VEC4","byteOffset":24},{"componentType":5126,"bufferView":6,"count":3192,"type":"VEC2","byteOffset":40},{"componentType":5126,"bufferView":6,"count":3192,"type":"VEC2","byteOffset":48},{"componentType":5126,"max":[13.977801322937012,47.754764556884766,13.180182456970215],"bufferView":7,"count":12468,"type":"VEC3","min":[-33.20598602294922,-1.2214471101760864,-6.865113258361816],"byteOffset":0},{"componentType":5126,"bufferView":7,"count":12468,"type":"VEC3","byteOffset":12},{"componentType":5126,"bufferView":7,"count":12468,"type":"VEC4","byteOffset":24},{"componentType":5126,"bufferView":7,"count":12468,"type":"VEC2","byteOffset":40},{"componentType":5126,"bufferView":7,"count":12468,"type":"VEC2","byteOffset":48},{"componentType":5126,"max":[6.183910846710205,0.2942802608013153,1.546287178993225],"bufferView":8,"count":604,"type":"VEC3","min":[-3.710130214691162,-12.926901817321777,-6.3826775550842285],"byteOffset":0},{"componentType":5126,"bufferView":8,"count":604,"type":"VEC3","byteOffset":12},{"componentType":5126,"bufferView":8,"count":604,"type":"VEC4","byteOffset":24},{"componentType":5126,"bufferView":8,"count":604,"type":"VEC2","byteOffset":40},{"componentType":5126,"bufferView":8,"count":604,"type":"VEC2","byteOffset":48},{"componentType":5126,"max":[-3.3971612453460693,1.262581467628479,7.615818500518799],"bufferView":9,"count":2449,"type":"VEC3","min":[-17.959762573242188,-8.8629732131958,-6.687677383422852],"byteOffset":0},{"componentType":5126,"bufferView":9,"count":2449,"type":"VEC3","byteOffset":12},{"componentType":5126,"bufferView":9,"count":2449,"type":"VEC4","byteOffset":24},{"componentType":5126,"bufferView":9,"count":2449,"type":"VEC2","byteOffset":40},{"componentType":5126,"bufferView":9,"count":2449,"type":"VEC2","byteOffset":48},{"componentType":5126,"max":[-15.962464332580566,17.23565101623535,14.473061561584473],"bufferView":10,"count":3160,"type":"VEC3","min":[-57.657840728759766,-22.49228286743164,-0.574222981929779],"byteOffset":0},{"componentType":5126,"bufferView":10,"count":3160,"type":"VEC3","byteOffset":12},{"componentType":5126,"bufferView":10,"count":3160,"type":"VEC4","byteOffset":24},{"componentType":5126,"bufferView":10,"count":3160,"type":"VEC2","byteOffset":40},{"componentType":5126,"bufferView":10,"count":3160,"type":"VEC2","byteOffset":48},{"componentType":5126,"max":[46.75735855102539,-6.684826374053955,13.53245735168457],"bufferView":11,"count":4056,"type":"VEC3","min":[20.556596755981445,-34.808837890625,-3.3285746574401855],"byteOffset":0},{"componentType":5126,"bufferView":11,"count":4056,"type":"VEC3","byteOffset":12},{"componentType":5126,"bufferView":11,"count":4056,"type":"VEC4","byteOffset":24},{"componentType":5126,"bufferView":11,"count":4056,"type":"VEC2","byteOffset":40},{"componentType":5126,"bufferView":11,"count":4056,"type":"VEC2","byteOffset":48},{"componentType":5126,"max":[88.03809356689453,27.00143051147461,19.551925659179688],"bufferView":12,"count":11791,"type":"VEC3","min":[38.51992416381836,-26.37657928466797,-6.9607720375061035],"byteOffset":0},{"componentType":5126,"bufferView":12,"count":11791,"type":"VEC3","byteOffset":12},{"componentType":5126,"bufferView":12,"count":11791,"type":"VEC4","byteOffset":24},{"componentType":5126,"bufferView":12,"count":11791,"type":"VEC2","byteOffset":40},{"componentType":5126,"bufferView":12,"count":11791,"type":"VEC2","byteOffset":48},{"componentType":5126,"max":[118.48587799072266,143.02926635742188,24.2988224029541],"bufferView":13,"count":818,"type":"VEC3","min":[36.19862365722656,87.56529235839844,-0.00005295897790347226],"byteOffset":0},{"componentType":5126,"bufferView":13,"count":818,"type":"VEC3","byteOffset":12},{"componentType":5126,"bufferView":13,"count":818,"type":"VEC4","byteOffset":24},{"componentType":5126,"bufferView":13,"count":818,"type":"VEC2","byteOffset":40},{"componentType":5126,"bufferView":13,"count":818,"type":"VEC2","byteOffset":48},{"componentType":5126,"max":[34.39461135864258,47.086761474609375,9.688902854919434],"bufferView":14,"count":1457,"type":"VEC3","min":[3.8099260330200195,26.87467384338379,-3.7929253578186035],"byteOffset":0},{"componentType":5126,"bufferView":14,"count":1457,"type":"VEC3","byteOffset":12},{"componentType":5126,"bufferView":14,"count":1457,"type":"VEC4","byteOffset":24},{"componentType":5126,"bufferView":14,"count":1457,"type":"VEC2","byteOffset":40},{"componentType":5126,"bufferView":14,"count":1457,"type":"VEC2","byteOffset":48},{"componentType":5126,"max":[46.84657287597656,143.02926635742188,24.298818588256836],"bufferView":15,"count":1776,"type":"VEC3","min":[-36.63808059692383,51.0172119140625,-0.04811713099479675],"byteOffset":0},{"componentType":5126,"bufferView":15,"count":1776,"type":"VEC3","byteOffset":12},{"componentType":5126,"bufferView":15,"count":1776,"type":"VEC4","byteOffset":24},{"componentType":5126,"bufferView":15,"count":1776,"type":"VEC2","byteOffset":40},{"componentType":5126,"bufferView":15,"count":1776,"type":"VEC2","byteOffset":48},{"componentType":5126,"max":[92.07496643066406,-18.986328125,11.425002098083496],"bufferView":16,"count":2400,"type":"VEC3","min":[48.020111083984375,-78.91412353515625,-0.3182945251464844],"byteOffset":0},{"componentType":5126,"bufferView":16,"count":2400,"type":"VEC3","byteOffset":12},{"componentType":5126,"bufferView":16,"count":2400,"type":"VEC4","byteOffset":24},{"componentType":5126,"bufferView":16,"count":2400,"type":"VEC2","byteOffset":40},{"componentType":5126,"bufferView":16,"count":2400,"type":"VEC2","byteOffset":48},{"componentType":5126,"max":[30.88958168029785,-17.96779441833496,10.548349380493164],"bufferView":17,"count":6461,"type":"VEC3","min":[-21.672025680541992,-63.016361236572266,-0.3807196021080017],"byteOffset":0},{"componentType":5126,"bufferView":17,"count":6461,"type":"VEC3","byteOffset":12},{"componentType":5126,"bufferView":17,"count":6461,"type":"VEC4","byteOffset":24},{"componentType":5126,"bufferView":17,"count":6461,"type":"VEC2","byteOffset":40},{"componentType":5126,"bufferView":17,"count":6461,"type":"VEC2","byteOffset":48},{"componentType":5126,"max":[-11.267579078674316,-17.173072814941406,18.3907527923584],"bufferView":18,"count":4500,"type":"VEC3","min":[-57.53354263305664,-62.96177291870117,1.6381465196609497],"byteOffset":0},{"componentType":5126,"bufferView":18,"count":4500,"type":"VEC3","byteOffset":12},{"componentType":5126,"bufferView":18,"count":4500,"type":"VEC4","byteOffset":24},{"componentType":5126,"bufferView":18,"count":4500,"type":"VEC2","byteOffset":40},{"componentType":5126,"bufferView":18,"count":4500,"type":"VEC2","byteOffset":48},{"componentType":5126,"max":[-49.33015823364258,29.437522888183594,11.175362586975098],"bufferView":19,"count":1048,"type":"VEC3","min":[-72.86099243164062,-32.905845642089844,2.309080123901367],"byteOffset":0},{"componentType":5126,"bufferView":19,"count":1048,"type":"VEC3","byteOffset":12},{"componentType":5126,"bufferView":19,"count":1048,"type":"VEC4","byteOffset":24},{"componentType":5126,"bufferView":19,"count":1048,"type":"VEC2","byteOffset":40},{"componentType":5126,"bufferView":19,"count":1048,"type":"VEC2","byteOffset":48},{"componentType":5126,"max":[48.12744140625,-62.96175765991211,11.16159439086914],"bufferView":20,"count":1024,"type":"VEC3","min":[-29.416637420654297,-96.64021301269531,2.303557872772217],"byteOffset":0},{"componentType":5126,"bufferView":20,"count":1024,"type":"VEC3","byteOffset":12},{"componentType":5126,"bufferView":20,"count":1024,"type":"VEC4","byteOffset":24},{"componentType":5126,"bufferView":20,"count":1024,"type":"VEC2","byteOffset":40},{"componentType":5126,"bufferView":20,"count":1024,"type":"VEC2","byteOffset":48},{"componentType":5126,"max":[-16.16280746459961,-77.93502044677734,11.238874435424805],"bufferView":21,"count":724,"type":"VEC3","min":[-65.09988403320312,-93.61932373046875,2.3808376789093018],"byteOffset":0},{"componentType":5126,"bufferView":21,"count":724,"type":"VEC3","byteOffset":12},{"componentType":5126,"bufferView":21,"count":724,"type":"VEC4","byteOffset":24},{"componentType":5126,"bufferView":21,"count":724,"type":"VEC2","byteOffset":40},{"componentType":5126,"bufferView":21,"count":724,"type":"VEC2","byteOffset":48},{"componentType":5126,"max":[-78.19820404052734,13.404091835021973,29.69974136352539],"bufferView":22,"count":4609,"type":"VEC3","min":[-150.87437438964844,-55.990882873535156,-0.09105407446622849],"byteOffset":0},{"componentType":5126,"bufferView":22,"count":4609,"type":"VEC3","byteOffset":12},{"componentType":5126,"bufferView":22,"count":4609,"type":"VEC4","byteOffset":24},{"componentType":5126,"bufferView":22,"count":4609,"type":"VEC2","byteOffset":40},{"componentType":5126,"bufferView":22,"count":4609,"type":"VEC2","byteOffset":48},{"componentType":5126,"max":[175.0348358154297,54.759521484375,21.316364288330078],"bufferView":23,"count":4646,"type":"VEC3","min":[94.67704010009766,-56.435546875,4.752338409423828],"byteOffset":0},{"componentType":5126,"bufferView":23,"count":4646,"type":"VEC3","byteOffset":12},{"componentType":5126,"bufferView":23,"count":4646,"type":"VEC4","byteOffset":24},{"componentType":5126,"bufferView":23,"count":4646,"type":"VEC2","byteOffset":40},{"componentType":5126,"bufferView":23,"count":4646,"type":"VEC2","byteOffset":48},{"componentType":5126,"max":[95.63945770263672,89.44480895996094,15.91313648223877],"bufferView":24,"count":1860,"type":"VEC3","min":[48.02011489868164,13.235654830932617,-0.8843573331832886],"byteOffset":0},{"componentType":5126,"bufferView":24,"count":1860,"type":"VEC3","byteOffset":12},{"componentType":5126,"bufferView":24,"count":1860,"type":"VEC4","byteOffset":24},{"componentType":5126,"bufferView":24,"count":1860,"type":"VEC2","byteOffset":40},{"componentType":5126,"bufferView":24,"count":1860,"type":"VEC2","byteOffset":48},{"componentType":5126,"max":[14.359414100646973,93.74715423583984,0.00000015258788721439487],"bufferView":25,"count":40,"type":"VEC3","min":[-20.320899963378906,22.292377471923828,-11.145343780517578],"byteOffset":0},{"componentType":5126,"bufferView":25,"count":40,"type":"VEC3","byteOffset":12},{"componentType":5126,"bufferView":25,"count":40,"type":"VEC4","byteOffset":24},{"componentType":5126,"bufferView":25,"count":40,"type":"VEC2","byteOffset":40},{"componentType":5126,"bufferView":25,"count":40,"type":"VEC2","byteOffset":48},{"componentType":5126,"max":[-20.32089614868164,93.74715423583984,-0.00000005722044704725704],"bufferView":26,"count":14,"type":"VEC3","min":[-53.33945846557617,46.03220748901367,-11.145343780517578],"byteOffset":0},{"componentType":5126,"bufferView":26,"count":14,"type":"VEC3","byteOffset":12},{"componentType":5126,"bufferView":26,"count":14,"type":"VEC4","byteOffset":24},{"componentType":5126,"bufferView":26,"count":14,"type":"VEC2","byteOffset":40},{"componentType":5126,"bufferView":26,"count":14,"type":"VEC2","byteOffset":48},{"componentType":5126,"max":[9.305212020874023,48.335575103759766,0.000002669095920282416],"bufferView":27,"count":72,"type":"VEC3","min":[-56.54572296142578,-17.972501754760742,-11.145343780517578],"byteOffset":0},{"componentType":5126,"bufferView":27,"count":72,"type":"VEC3","byteOffset":12},{"componentType":5126,"bufferView":27,"count":72,"type":"VEC4","byteOffset":24},{"componentType":5126,"bufferView":27,"count":72,"type":"VEC2","byteOffset":40},{"componentType":5126,"bufferView":27,"count":72,"type":"VEC2","byteOffset":48},{"componentType":5126,"max":[44.18335723876953,-6.738748550415039,0.000006103515261202119],"bufferView":28,"count":50,"type":"VEC3","min":[-23.130117416381836,-32.73223876953125,-1.8646310567855835],"byteOffset":0},{"componentType":5126,"bufferView":28,"count":50,"type":"VEC3","byteOffset":12},{"componentType":5126,"bufferView":28,"count":50,"type":"VEC4","byteOffset":24},{"componentType":5126,"bufferView":28,"count":50,"type":"VEC2","byteOffset":40},{"componentType":5126,"bufferView":28,"count":50,"type":"VEC2","byteOffset":48},{"componentType":5126,"max":[-20.72933578491211,-29.50306510925293,2.4977736473083496],"bufferView":29,"count":4,"type":"VEC3","min":[-67.81825256347656,-89.05103302001953,2.4977731704711914],"byteOffset":0},{"componentType":5126,"bufferView":29,"count":4,"type":"VEC3","byteOffset":12},{"componentType":5126,"bufferView":29,"count":4,"type":"VEC4","byteOffset":24},{"componentType":5126,"bufferView":29,"count":4,"type":"VEC2","byteOffset":40},{"componentType":5126,"bufferView":29,"count":4,"type":"VEC2","byteOffset":48},{"componentType":5126,"max":[43.679100036621094,141.3254852294922,18.709352493286133],"bufferView":30,"count":40,"type":"VEC3","min":[-52.320926666259766,93.74714660644531,-0.0000030517576306010596],"byteOffset":0},{"componentType":5126,"bufferView":30,"count":40,"type":"VEC3","byteOffset":12},{"componentType":5126,"bufferView":30,"count":40,"type":"VEC4","byteOffset":24},{"componentType":5126,"bufferView":30,"count":40,"type":"VEC2","byteOffset":40},{"componentType":5126,"bufferView":30,"count":40,"type":"VEC2","byteOffset":48},{"componentType":5126,"max":[117.14144134521484,142.509765625,18.709352493286133],"bufferView":31,"count":36,"type":"VEC3","min":[18.540714263916016,93.74715423583984,-0.000001220703097715159],"byteOffset":0},{"componentType":5126,"bufferView":31,"count":36,"type":"VEC3","byteOffset":12},{"componentType":5126,"bufferView":31,"count":36,"type":"VEC4","byteOffset":24},{"componentType":5126,"bufferView":31,"count":36,"type":"VEC2","byteOffset":40},{"componentType":5126,"bufferView":31,"count":36,"type":"VEC2","byteOffset":48},{"componentType":5126,"max":[187.5062713623047,18.059844970703125,4.963668346405029],"bufferView":32,"count":45,"type":"VEC3","min":[59.52014923095703,-71.9503173828125,-0.7224833369255066],"byteOffset":0},{"componentType":5126,"bufferView":32,"count":45,"type":"VEC3","byteOffset":12},{"componentType":5126,"bufferView":32,"count":45,"type":"VEC4","byteOffset":24},{"componentType":5126,"bufferView":32,"count":45,"type":"VEC2","byteOffset":40},{"componentType":5126,"bufferView":32,"count":45,"type":"VEC2","byteOffset":48},{"componentType":5126,"max":[48.02012252807617,-18.173913955688477,2.5069000720977783],"bufferView":33,"count":91,"type":"VEC3","min":[-29.36343765258789,-125.59017944335938,-0.000008697509656485636],"byteOffset":0},{"componentType":5126,"bufferView":33,"count":91,"type":"VEC3","byteOffset":12},{"componentType":5126,"bufferView":33,"count":91,"type":"VEC4","byteOffset":24},{"componentType":5126,"bufferView":33,"count":91,"type":"VEC2","byteOffset":40},{"componentType":5126,"bufferView":33,"count":91,"type":"VEC2","byteOffset":48},{"componentType":5126,"max":[-22.954208374023438,71.30326843261719,2.3486883640289307],"bufferView":34,"count":24,"type":"VEC3","min":[-57.732421875,-22.492277145385742,0.3213005065917969],"byteOffset":0},{"componentType":5126,"bufferView":34,"count":24,"type":"VEC3","byteOffset":12},{"componentType":5126,"bufferView":34,"count":24,"type":"VEC4","byteOffset":24},{"componentType":5126,"bufferView":34,"count":24,"type":"VEC2","byteOffset":40},{"componentType":5126,"bufferView":34,"count":24,"type":"VEC2","byteOffset":48},{"componentType":5126,"max":[188.02357482910156,118.55714416503906,4.963671684265137],"bufferView":35,"count":20,"type":"VEC3","min":[60.177513122558594,18.059843063354492,-0.0000011836815474453033],"byteOffset":0},{"componentType":5126,"bufferView":35,"count":20,"type":"VEC3","byteOffset":12},{"componentType":5126,"bufferView":35,"count":20,"type":"VEC4","byteOffset":24},{"componentType":5126,"bufferView":35,"count":20,"type":"VEC2","byteOffset":40},{"componentType":5126,"bufferView":35,"count":20,"type":"VEC2","byteOffset":48},{"componentType":5126,"max":[48.02009963989258,93.74715423583984,1.6144205331802368],"bufferView":36,"count":369,"type":"VEC3","min":[11.67910099029541,19.17698860168457,-2.164425849914551],"byteOffset":0},{"componentType":5126,"bufferView":36,"count":369,"type":"VEC3","byteOffset":12},{"componentType":5126,"bufferView":36,"count":369,"type":"VEC4","byteOffset":24},{"componentType":5126,"bufferView":36,"count":369,"type":"VEC2","byteOffset":40},{"componentType":5126,"bufferView":36,"count":369,"type":"VEC2","byteOffset":48},{"componentType":5126,"max":[46.200096130371094,30.897602081298828,0.9421223998069763],"bufferView":37,"count":1730,"type":"VEC3","min":[-17.600231170654297,-19.72005844116211,-4.8463287353515625],"byteOffset":0},{"componentType":5126,"bufferView":37,"count":1730,"type":"VEC3","byteOffset":12},{"componentType":5126,"bufferView":37,"count":1730,"type":"VEC4","byteOffset":24},{"componentType":5126,"bufferView":37,"count":1730,"type":"VEC2","byteOffset":40},{"componentType":5126,"bufferView":37,"count":1730,"type":"VEC2","byteOffset":48},{"componentType":5126,"max":[23.050262451171875,6.296868324279785,-1.774542212486267],"bufferView":38,"count":2891,"type":"VEC3","min":[12.823062896728516,-0.5114078521728516,-1.999528169631958],"byteOffset":0},{"componentType":5126,"bufferView":38,"count":2891,"type":"VEC3","byteOffset":12},{"componentType":5126,"bufferView":38,"count":2891,"type":"VEC4","byteOffset":24},{"componentType":5126,"bufferView":38,"count":2891,"type":"VEC2","byteOffset":40},{"componentType":5126,"bufferView":38,"count":2891,"type":"VEC2","byteOffset":48},{"componentType":5126,"max":[63.20245361328125,47.15532684326172,2.591290235519409],"bufferView":39,"count":1588,"type":"VEC3","min":[34.13571548461914,-26.99043846130371,-1.768276333808899],"byteOffset":0},{"componentType":5126,"bufferView":39,"count":1588,"type":"VEC3","byteOffset":12},{"componentType":5126,"bufferView":39,"count":1588,"type":"VEC4","byteOffset":24},{"componentType":5126,"bufferView":39,"count":1588,"type":"VEC2","byteOffset":40},{"componentType":5126,"bufferView":39,"count":1588,"type":"VEC2","byteOffset":48},{"componentType":5126,"max":[11.943622589111328,54.841697692871094,0.0000059509275160962716],"bufferView":40,"count":260,"type":"VEC3","min":[-47.00934982299805,-14.62016487121582,-11.145343780517578],"byteOffset":0},{"componentType":5126,"bufferView":40,"count":260,"type":"VEC3","byteOffset":12},{"componentType":5126,"bufferView":40,"count":260,"type":"VEC4","byteOffset":24},{"componentType":5126,"bufferView":40,"count":260,"type":"VEC2","byteOffset":40},{"componentType":5126,"bufferView":40,"count":260,"type":"VEC2","byteOffset":48},{"componentType":5126,"max":[62.97003936767578,39.45774459838867,2.3454737663269043],"bufferView":41,"count":6750,"type":"VEC3","min":[-6.760014533996582,-20.381601333618164,-17.219785690307617],"byteOffset":0},{"componentType":5126,"bufferView":41,"count":6750,"type":"VEC3","byteOffset":12},{"componentType":5126,"bufferView":41,"count":6750,"type":"VEC4","byteOffset":24},{"componentType":5126,"bufferView":41,"count":6750,"type":"VEC2","byteOffset":40},{"componentType":5126,"bufferView":41,"count":6750,"type":"VEC2","byteOffset":48},{"componentType":5126,"max":[50.173885345458984,40.28416061401367,9.472195625305176],"bufferView":42,"count":2693,"type":"VEC3","min":[34.8211555480957,18.408466339111328,-2.710231304168701],"byteOffset":0},{"componentType":5126,"bufferView":42,"count":2693,"type":"VEC3","byteOffset":12},{"componentType":5126,"bufferView":42,"count":2693,"type":"VEC4","byteOffset":24},{"componentType":5126,"bufferView":42,"count":2693,"type":"VEC2","byteOffset":40},{"componentType":5126,"bufferView":42,"count":2693,"type":"VEC2","byteOffset":48},{"componentType":5126,"max":[58.16041946411133,2.526808023452759,8.643917083740234],"bufferView":43,"count":5406,"type":"VEC3","min":[36.76129150390625,-9.900071144104004,-3.4813344478607178],"byteOffset":0},{"componentType":5126,"bufferView":43,"count":5406,"type":"VEC3","byteOffset":12},{"componentType":5126,"bufferView":43,"count":5406,"type":"VEC4","byteOffset":24},{"componentType":5126,"bufferView":43,"count":5406,"type":"VEC2","byteOffset":40},{"componentType":5126,"bufferView":43,"count":5406,"type":"VEC2","byteOffset":48},{"componentType":5126,"max":[-124.59530639648438,112.51483154296875,35.62245178222656],"bufferView":44,"count":1408,"type":"VEC3","min":[-147.46054077148438,-26.067245483398438,-6.088808536529541],"byteOffset":0},{"componentType":5126,"bufferView":44,"count":1408,"type":"VEC3","byteOffset":12},{"componentType":5126,"bufferView":44,"count":1408,"type":"VEC4","byteOffset":24},{"componentType":5126,"bufferView":44,"count":1408,"type":"VEC2","byteOffset":40},{"componentType":5126,"bufferView":44,"count":1408,"type":"VEC2","byteOffset":48},{"componentType":5126,"max":[148.67320251464844,21.019880294799805,35.622371673583984],"bufferView":45,"count":1510,"type":"VEC3","min":[125.80795288085938,-117.56219482421875,-6.088886737823486],"byteOffset":0},{"componentType":5126,"bufferView":45,"count":1510,"type":"VEC3","byteOffset":12},{"componentType":5126,"bufferView":45,"count":1510,"type":"VEC4","byteOffset":24},{"componentType":5126,"bufferView":45,"count":1510,"type":"VEC2","byteOffset":40},{"componentType":5126,"bufferView":45,"count":1510,"type":"VEC2","byteOffset":48},{"componentType":5126,"max":[-124.59530639648438,-21.292510986328125,35.622459411621094],"bufferView":46,"count":1426,"type":"VEC3","min":[-147.46054077148438,-159.48143005371094,-6.088807106018066],"byteOffset":0},{"componentType":5126,"bufferView":46,"count":1426,"type":"VEC3","byteOffset":12},{"componentType":5126,"bufferView":46,"count":1426,"type":"VEC4","byteOffset":24},{"componentType":5126,"bufferView":46,"count":1426,"type":"VEC2","byteOffset":40},{"componentType":5126,"bufferView":46,"count":1426,"type":"VEC2","byteOffset":48},{"componentType":5126,"max":[148.6732177734375,154.43406677246094,35.622379302978516],"bufferView":47,"count":1408,"type":"VEC3","min":[125.8079833984375,16.245145797729492,-6.088885307312012],"byteOffset":0},{"componentType":5126,"bufferView":47,"count":1408,"type":"VEC3","byteOffset":12},{"componentType":5126,"bufferView":47,"count":1408,"type":"VEC4","byteOffset":24},{"componentType":5126,"bufferView":47,"count":1408,"type":"VEC2","byteOffset":40},{"componentType":5126,"bufferView":47,"count":1408,"type":"VEC2","byteOffset":48},{"componentType":5126,"max":[-25.48978042602539,-22.213623046875,15.771296501159668],"bufferView":48,"count":212,"type":"VEC3","min":[-78.63909149169922,-55.01253890991211,2.6164629459381104],"byteOffset":0},{"componentType":5126,"bufferView":48,"count":212,"type":"VEC3","byteOffset":12},{"componentType":5126,"bufferView":48,"count":212,"type":"VEC4","byteOffset":24},{"componentType":5126,"bufferView":48,"count":212,"type":"VEC2","byteOffset":40},{"componentType":5126,"bufferView":48,"count":212,"type":"VEC2","byteOffset":48},{"componentType":5126,"max":[91.90744018554688,-21.882427215576172,9.40807056427002],"bufferView":49,"count":296,"type":"VEC3","min":[61.9185791015625,-62.3114128112793,3.2065823078155518],"byteOffset":0},{"componentType":5126,"bufferView":49,"count":296,"type":"VEC3","byteOffset":12},{"componentType":5126,"bufferView":49,"count":296,"type":"VEC4","byteOffset":24},{"componentType":5126,"bufferView":49,"count":296,"type":"VEC2","byteOffset":40},{"componentType":5126,"bufferView":49,"count":296,"type":"VEC2","byteOffset":48},{"componentType":5126,"max":[36.169429779052734,142.75628662109375,23.749408721923828],"bufferView":50,"count":248,"type":"VEC3","min":[-36.338226318359375,119.1497802734375,19.62034797668457],"byteOffset":0},{"componentType":5126,"bufferView":50,"count":248,"type":"VEC3","byteOffset":12},{"componentType":5126,"bufferView":50,"count":248,"type":"VEC4","byteOffset":24},{"componentType":5126,"bufferView":50,"count":248,"type":"VEC2","byteOffset":40},{"componentType":5126,"bufferView":50,"count":248,"type":"VEC2","byteOffset":48},{"componentType":5126,"max":[123.26587677001953,53.01131057739258,12.001504898071289],"bufferView":51,"count":224,"type":"VEC3","min":[94.90973663330078,-54.33955001831055,5.867604732513428],"byteOffset":0},{"componentType":5126,"bufferView":51,"count":224,"type":"VEC3","byteOffset":12},{"componentType":5126,"bufferView":51,"count":224,"type":"VEC4","byteOffset":24},{"componentType":5126,"bufferView":51,"count":224,"type":"VEC2","byteOffset":40},{"componentType":5126,"bufferView":51,"count":224,"type":"VEC2","byteOffset":48}],"textures":[{"source":0,"sampler":0},{"source":1,"sampler":0},{"source":2,"sampler":0},{"source":3,"sampler":0},{"source":4,"sampler":0},{"source":5,"sampler":0},{"source":6,"sampler":0}],"buffers":[{"byteLength":6210588,"uri":"buffer.bin"}],"bufferViews":[{"byteLength":4,"byteOffset":0,"buffer":0},{"byteLength":293232,"target":34963,"byteOffset":4,"buffer":0},{"byteLength":8064,"byteStride":56,"target":34962,"byteOffset":293236,"buffer":0},{"byteLength":84280,"byteStride":56,"target":34962,"byteOffset":301300,"buffer":0},{"byteLength":222432,"byteStride":56,"target":34962,"byteOffset":385580,"buffer":0},{"byteLength":120288,"byteStride":56,"target":34962,"byteOffset":608012,"buffer":0},{"byteLength":178752,"byteStride":56,"target":34962,"byteOffset":728300,"buffer":0},{"byteLength":698208,"byteStride":56,"target":34962,"byteOffset":907052,"buffer":0},{"byteLength":33824,"byteStride":56,"target":34962,"byteOffset":1605260,"buffer":0},{"byteLength":137144,"byteStride":56,"target":34962,"byteOffset":1639084,"buffer":0},{"byteLength":176960,"byteStride":56,"target":34962,"byteOffset":1776228,"buffer":0},{"byteLength":227136,"byteStride":56,"target":34962,"byteOffset":1953188,"buffer":0},{"byteLength":660296,"byteStride":56,"target":34962,"byteOffset":2180324,"buffer":0},{"byteLength":45808,"byteStride":56,"target":34962,"byteOffset":2840620,"buffer":0},{"byteLength":81592,"byteStride":56,"target":34962,"byteOffset":2886428,"buffer":0},{"byteLength":99456,"byteStride":56,"target":34962,"byteOffset":2968020,"buffer":0},{"byteLength":134400,"byteStride":56,"target":34962,"byteOffset":3067476,"buffer":0},{"byteLength":361816,"byteStride":56,"target":34962,"byteOffset":3201876,"buffer":0},{"byteLength":252000,"byteStride":56,"target":34962,"byteOffset":3563692,"buffer":0},{"byteLength":58688,"byteStride":56,"target":34962,"byteOffset":3815692,"buffer":0},{"byteLength":57344,"byteStride":56,"target":34962,"byteOffset":3874380,"buffer":0},{"byteLength":40544,"byteStride":56,"target":34962,"byteOffset":3931724,"buffer":0},{"byteLength":258104,"byteStride":56,"target":34962,"byteOffset":3972268,"buffer":0},{"byteLength":260176,"byteStride":56,"target":34962,"byteOffset":4230372,"buffer":0},{"byteLength":104160,"byteStride":56,"target":34962,"byteOffset":4490548,"buffer":0},{"byteLength":2240,"byteStride":56,"target":34962,"byteOffset":4594708,"buffer":0},{"byteLength":784,"byteStride":56,"target":34962,"byteOffset":4596948,"buffer":0},{"byteLength":4032,"byteStride":56,"target":34962,"byteOffset":4597732,"buffer":0},{"byteLength":2800,"byteStride":56,"target":34962,"byteOffset":4601764,"buffer":0},{"byteLength":224,"byteStride":56,"target":34962,"byteOffset":4604564,"buffer":0},{"byteLength":2240,"byteStride":56,"target":34962,"byteOffset":4604788,"buffer":0},{"byteLength":2016,"byteStride":56,"target":34962,"byteOffset":4607028,"buffer":0},{"byteLength":2520,"byteStride":56,"target":34962,"byteOffset":4609044,"buffer":0},{"byteLength":5096,"byteStride":56,"target":34962,"byteOffset":4611564,"buffer":0},{"byteLength":1344,"byteStride":56,"target":34962,"byteOffset":4616660,"buffer":0},{"byteLength":1120,"byteStride":56,"target":34962,"byteOffset":4618004,"buffer":0},{"byteLength":20664,"byteStride":56,"target":34962,"byteOffset":4619124,"buffer":0},{"byteLength":96880,"byteStride":56,"target":34962,"byteOffset":4639788,"buffer":0},{"byteLength":161896,"byteStride":56,"target":34962,"byteOffset":4736668,"buffer":0},{"byteLength":88928,"byteStride":56,"target":34962,"byteOffset":4898564,"buffer":0},{"byteLength":14560,"byteStride":56,"target":34962,"byteOffset":4987492,"buffer":0},{"byteLength":378000,"byteStride":56,"target":34962,"byteOffset":5002052,"buffer":0},{"byteLength":150808,"byteStride":56,"target":34962,"byteOffset":5380052,"buffer":0},{"byteLength":302736,"byteStride":56,"target":34962,"byteOffset":5530860,"buffer":0},{"byteLength":78848,"byteStride":56,"target":34962,"byteOffset":5833596,"buffer":0},{"byteLength":84560,"byteStride":56,"target":34962,"byteOffset":5912444,"buffer":0},{"byteLength":79856,"byteStride":56,"target":34962,"byteOffset":5997004,"buffer":0},{"byteLength":78848,"byteStride":56,"target":34962,"byteOffset":6076860,"buffer":0},{"byteLength":11872,"byteStride":56,"target":34962,"byteOffset":6155708,"buffer":0},{"byteLength":16576,"byteStride":56,"target":34962,"byteOffset":6167580,"buffer":0},{"byteLength":13888,"byteStride":56,"target":34962,"byteOffset":6184156,"buffer":0},{"byteLength":12544,"byteStride":56,"target":34962,"byteOffset":6198044,"buffer":0}],"samplers":[{"magFilter":9729,"minFilter":9987}],"scene":0,"nodes":[{"children":[1,2,3,4,5,6,7,8,9,10,11,12,13,14,15,16,17,18,19,20,21,22,23,24,25,26,27,28,29,30,31,32,33,34,35,36,37,38,39,40,41,42,43,44,45,46,47,48,49,50],"name":"RootNode"},{"rotation":[-0.70710676908493,0,0,0.70710676908493],"name":"Army_Alpha001","mesh":0},{"rotation":[-0.70710676908493,0,0,0.70710676908493],"name":"Army_Alpha002","mesh":42},{"rotation":[-0.70710676908493,0,0,0.70710676908493],"name":"Army_Alpha003","mesh":43},{"rotation":[-0.70710676908493,0,0,0.70710676908493],"name":"Army_Alpha004","mesh":44},{"rotation":[-0.70710676908493,0,0,0.70710676908493],"name":"Army_Alpha005","mesh":45},{"rotation":[-0.70710676908493,0,0,0.70710676908493],"name":"Army_Alpha006","mesh":46},{"rotation":[-0.70710676908493,0,0,0.70710676908493],"name":"Army_Alpha007","mesh":47},{"rotation":[-0.70710676908493,0,0,0.70710676908493],"name":"Army_Alpha008","mesh":48},{"rotation":[-0.70710676908493,0,0,0.70710676908493],"name":"Army_Alpha009","mesh":49},{"rotation":[-0.70710676908493,0,0,0.70710676908493],"name":"Army_FloorBase001","mesh":23},{"rotation":[-0.70710676908493,0,0,0.70710676908493],"name":"Army_FloorBase002","mesh":24},{"rotation":[-0.70710676908493,0,0,0.70710676908493],"name":"Army_FloorBase003","mesh":25},{"rotation":[-0.70710676908493,0,0,0.70710676908493],"name":"Army_FloorBase004","mesh":35},{"rotation":[-0.70710676908493,0,0,0.70710676908493],"name":"Army_FloorBase005","mesh":37},{"rotation":[-0.70710676908493,0,0,0.70710676908493],"name":"Army_FloorBase006","mesh":26},{"rotation":[-0.70710676908493,0,0,0.70710676908493],"name":"Army_Ground001","mesh":27},{"rotation":[-0.70710676908493,0,0,0.70710676908493],"name":"Army_Ground002","mesh":28},{"rotation":[-0.70710676908493,0,0,0.70710676908493],"name":"Army_Ground003","mesh":29},{"rotation":[-0.70710676908493,0,0,0.70710676908493],"name":"Army_Ground004","mesh":30},{"rotation":[-0.70710676908493,0,0,0.70710676908493],"name":"Army_Ground005","mesh":31},{"rotation":[-0.70710676908493,0,0,0.70710676908493],"name":"Army_Ground006","mesh":32},{"rotation":[-0.70710676908493,0,0,0.70710676908493],"name":"Army_Ground007","mesh":33},{"rotation":[-0.70710676908493,0,0,0.70710676908493],"name":"Army_Ground008","mesh":34},{"rotation":[-0.70710676908493,0,0,0.70710676908493],"name":"Army_Object001","mesh":1},{"rotation":[-0.70710676908493,0,0,0.70710676908493],"name":"Army_Object002","mesh":2},{"rotation":[-0.70710676908493,0,0,0.70710676908493],"name":"Army_Object003","mesh":36},{"rotation":[-0.70710676908493,0,0,0.70710676908493],"name":"Army_Object004","mesh":3},{"rotation":[-0.70710676908493,0,0,0.70710676908493],"name":"Army_Object005","mesh":4},{"rotation":[-0.70710676908493,0,0,0.70710676908493],"name":"Army_Object006","mesh":5},{"rotation":[-0.70710676908493,0,0,0.70710676908493],"name":"Army_Object007","mesh":6},{"rotation":[-0.70710676908493,0,0,0.70710676908493],"name":"Army_Object008","mesh":7},{"rotation":[-0.70710676908493,0,0,0.70710676908493],"name":"Army_Object009","mesh":8},{"rotation":[-0.70710676908493,0,0,0.70710676908493],"name":"Army_Object010","mesh":9},{"rotation":[-0.70710676908493,0,0,0.70710676908493],"name":"Army_Object011","mesh":10},{"rotation":[-0.70710676908493,0,0,0.70710676908493],"name":"Army_Object012","mesh":11},{"rotation":[-0.70710676908493,0,0,0.70710676908493],"name":"Army_Object013","mesh":12},{"rotation":[-0.70710676908493,0,0,0.70710676908493],"name":"Army_Object014","mesh":13},{"rotation":[-0.70710676908493,0,0,0.70710676908493],"name":"Army_Object015","mesh":14},{"rotation":[-0.70710676908493,0,0,0.70710676908493],"name":"Army_Object016","mesh":15},{"rotation":[-0.70710676908493,0,0,0.70710676908493],"name":"Army_Object018","mesh":16},{"rotation":[-0.70710676908493,0,0,0.70710676908493],"name":"Army_Object019","mesh":17},{"rotation":[-0.70710676908493,0,0,0.70710676908493],"name":"Army_Object020","mesh":18},{"rotation":[-0.70710676908493,0,0,0.70710676908493],"name":"Army_Object021","mesh":19},{"rotation":[-0.70710676908493,0,0,0.70710676908493],"name":"Army_Object022","mesh":20},{"rotation":[-0.70710676908493,0,0,0.70710676908493],"name":"Army_Object023","mesh":21},{"rotation":[-0.70710676908493,0,0,0.70710676908493],"name":"Army_Object024","mesh":22},{"rotation":[-0.70710676908493,0,0,0.70710676908493],"name":"Army_SideFloor001","mesh":38},{"rotation":[-0.70710676908493,0,0,0.70710676908493],"name":"Army_SideFloor002","mesh":39},{"rotation":[-0.70710676908493,0,0,0.70710676908493],"name":"Army_Tank001","mesh":40},{"rotation":[-0.70710676908493,0,0,0.70710676908493],"name":"Army_Tank002","mesh":41},{"children":[0],"name":"Pivot","translation":[-18.574600219726562,17.219785209246712,-2.523682533085747]}],"materials":[{"pbrMetallicRoughness":{"roughnessFactor":0.70710676908493,"baseColorFactor":[1,1,1,1],"baseColorTexture":{"index":6},"metallicFactor":0.400000005960464},"extensions":{"KHR_materials_specular":{"specularFactor":0.3}},"name":"Material #526"},{"pbrMetallicRoughness":{"roughnessFactor":0.70710676908493,"baseColorFactor":[1,1,1,1],"baseColorTexture":{"index":0},"metallicFactor":0.400000005960464},"alphaCutoff":0.5,"extensions":{"KHR_materials_specular":{"specularFactor":0.3}},"name":"Material #525","doubleSided":true,"alphaMode":"MASK"},{"pbrMetallicRoughness":{"roughnessFactor":0.70710676908493,"baseColorFactor":[1,1,1,1],"baseColorTexture":{"index":1},"metallicFactor":0.400000005960464},"extensions":{"KHR_materials_specular":{"specularFactor":0.3}},"name":"Material #529"},{"pbrMetallicRoughness":{"roughnessFactor":0.70710676908493,"baseColorFactor":[1,1,1,1],"baseColorTexture":{"index":2},"metallicFactor":0.400000005960464},"extensions":{"KHR_materials_specular":{"specularFactor":0.3}},"name":"Material #528"},{"pbrMetallicRoughness":{"roughnessFactor":0.70710676908493,"baseColorFactor":[1,1,1,1],"baseColorTexture":{"index":4},"metallicFactor":0.400000005960464},"extensions":{"KHR_materials_specular":{"specularFactor":0.3}},"name":"Material #527"},{"pbrMetallicRoughness":{"roughnessFactor":0.70710676908493,"baseColorFactor":[1,1,1,1],"baseColorTexture":{"index":3},"metallicFactor":0.400000005960464},"extensions":{"KHR_materials_specular":{"specularFactor":0.3}},"name":"Material #530"},{"pbrMetallicRoughness":{"roughnessFactor":0.70710676908493,"baseColorFactor":[1,1,1,1],"baseColorTexture":{"index":5},"metallicFactor":0.400000005960464},"extensions":{"KHR_materials_specular":{"specularFactor":0.3}},"name":"Material #531"}],"animations":[{"samplers":[],"channels":[],"name":"Take 001"}],"scenes":[{"nodes":[51],"name":"Root Scene"}],"asset":{"generator":"CG美术之家","source":"https://www.cgmszj.com/model/103230.html","version":"2.0"},"meshes":[{"primitives":[{"mode":4,"indices":1,"material":0,"attributes":{"TEXCOORD_1":55,"COLOR_0":53,"POSITION":51,"TEXCOORD_0":54,"NORMAL":52}}],"name":"Army_Alpha001"},{"primitives":[{"mode":4,"indices":2,"material":0,"attributes":{"TEXCOORD_1":60,"COLOR_0":58,"POSITION":56,"TEXCOORD_0":59,"NORMAL":57}}],"name":"Army_Object001"},{"primitives":[{"mode":4,"indices":3,"material":0,"attributes":{"TEXCOORD_1":65,"COLOR_0":63,"POSITION":61,"TEXCOORD_0":64,"NORMAL":62}}],"name":"Army_Object002"},{"primitives":[{"mode":4,"indices":4,"material":0,"attributes":{"TEXCOORD_1":70,"COLOR_0":68,"POSITION":66,"TEXCOORD_0":69,"NORMAL":67}}],"name":"Army_Object004"},{"primitives":[{"mode":4,"indices":5,"material":0,"attributes":{"TEXCOORD_1":75,"COLOR_0":73,"POSITION":71,"TEXCOORD_0":74,"NORMAL":72}}],"name":"Army_Object005"},{"primitives":[{"mode":4,"indices":6,"material":0,"attributes":{"TEXCOORD_1":80,"COLOR_0":78,"POSITION":76,"TEXCOORD_0":79,"NORMAL":77}}],"name":"Army_Object006"},{"primitives":[{"mode":4,"indices":7,"material":0,"attributes":{"TEXCOORD_1":85,"COLOR_0":83,"POSITION":81,"TEXCOORD_0":84,"NORMAL":82}}],"name":"Army_Object007"},{"primitives":[{"mode":4,"indices":8,"material":0,"attributes":{"TEXCOORD_1":90,"COLOR_0":88,"POSITION":86,"TEXCOORD_0":89,"NORMAL":87}}],"name":"Army_Object008"},{"primitives":[{"mode":4,"indices":9,"material":0,"attributes":{"TEXCOORD_1":95,"COLOR_0":93,"POSITION":91,"TEXCOORD_0":94,"NORMAL":92}}],"name":"Army_Object009"},{"primitives":[{"mode":4,"indices":10,"material":0,"attributes":{"TEXCOORD_1":100,"COLOR_0":98,"POSITION":96,"TEXCOORD_0":99,"NORMAL":97}}],"name":"Army_Object010"},{"primitives":[{"mode":4,"indices":11,"material":0,"attributes":{"TEXCOORD_1":105,"COLOR_0":103,"POSITION":101,"TEXCOORD_0":104,"NORMAL":102}}],"name":"Army_Object011"},{"primitives":[{"mode":4,"indices":12,"material":0,"attributes":{"TEXCOORD_1":110,"COLOR_0":108,"POSITION":106,"TEXCOORD_0":109,"NORMAL":107}}],"name":"Army_Object012"},{"primitives":[{"mode":4,"indices":13,"material":0,"attributes":{"TEXCOORD_1":115,"COLOR_0":113,"POSITION":111,"TEXCOORD_0":114,"NORMAL":112}}],"name":"Army_Object013"},{"primitives":[{"mode":4,"indices":14,"material":0,"attributes":{"TEXCOORD_1":120,"COLOR_0":118,"POSITION":116,"TEXCOORD_0":119,"NORMAL":117}}],"name":"Army_Object014"},{"primitives":[{"mode":4,"indices":15,"material":0,"attributes":{"TEXCOORD_1":125,"COLOR_0":123,"POSITION":121,"TEXCOORD_0":124,"NORMAL":122}}],"name":"Army_Object015"},{"primitives":[{"mode":4,"indices":16,"material":0,"attributes":{"TEXCOORD_1":130,"COLOR_0":128,"POSITION":126,"TEXCOORD_0":129,"NORMAL":127}}],"name":"Army_Object016"},{"primitives":[{"mode":4,"indices":17,"material":0,"attributes":{"TEXCOORD_1":135,"COLOR_0":133,"POSITION":131,"TEXCOORD_0":134,"NORMAL":132}}],"name":"Army_Object018"},{"primitives":[{"mode":4,"indices":18,"material":0,"attributes":{"TEXCOORD_1":140,"COLOR_0":138,"POSITION":136,"TEXCOORD_0":139,"NORMAL":137}}],"name":"Army_Object019"},{"primitives":[{"mode":4,"indices":19,"material":0,"attributes":{"TEXCOORD_1":145,"COLOR_0":143,"POSITION":141,"TEXCOORD_0":144,"NORMAL":142}}],"name":"Army_Object020"},{"primitives":[{"mode":4,"indices":20,"material":0,"attributes":{"TEXCOORD_1":150,"COLOR_0":148,"POSITION":146,"TEXCOORD_0":149,"NORMAL":147}}],"name":"Army_Object021"},{"primitives":[{"mode":4,"indices":21,"material":0,"attributes":{"TEXCOORD_1":155,"COLOR_0":153,"POSITION":151,"TEXCOORD_0":154,"NORMAL":152}}],"name":"Army_Object022"},{"primitives":[{"mode":4,"indices":22,"material":0,"attributes":{"TEXCOORD_1":160,"COLOR_0":158,"POSITION":156,"TEXCOORD_0":159,"NORMAL":157}}],"name":"Army_Object023"},{"primitives":[{"mode":4,"indices":23,"material":0,"attributes":{"TEXCOORD_1":165,"COLOR_0":163,"POSITION":161,"TEXCOORD_0":164,"NORMAL":162}}],"name":"Army_Object024"},{"primitives":[{"mode":4,"indices":24,"material":2,"attributes":{"TEXCOORD_1":170,"COLOR_0":168,"POSITION":166,"TEXCOORD_0":169,"NORMAL":167}}],"name":"Army_FloorBase001"},{"primitives":[{"mode":4,"indices":25,"material":2,"attributes":{"TEXCOORD_1":175,"COLOR_0":173,"POSITION":171,"TEXCOORD_0":174,"NORMAL":172}}],"name":"Army_FloorBase002"},{"primitives":[{"mode":4,"indices":26,"material":2,"attributes":{"TEXCOORD_1":180,"COLOR_0":178,"POSITION":176,"TEXCOORD_0":179,"NORMAL":177}}],"name":"Army_FloorBase003"},{"primitives":[{"mode":4,"indices":27,"material":2,"attributes":{"TEXCOORD_1":185,"COLOR_0":183,"POSITION":181,"TEXCOORD_0":184,"NORMAL":182}}],"name":"Army_FloorBase006"},{"primitives":[{"mode":4,"indices":28,"material":2,"attributes":{"TEXCOORD_1":190,"COLOR_0":188,"POSITION":186,"TEXCOORD_0":189,"NORMAL":187}}],"name":"Army_Ground001"},{"primitives":[{"mode":4,"indices":29,"material":2,"attributes":{"TEXCOORD_1":195,"COLOR_0":193,"POSITION":191,"TEXCOORD_0":194,"NORMAL":192}}],"name":"Army_Ground002"},{"primitives":[{"mode":4,"indices":30,"material":2,"attributes":{"TEXCOORD_1":200,"COLOR_0":198,"POSITION":196,"TEXCOORD_0":199,"NORMAL":197}}],"name":"Army_Ground003"},{"primitives":[{"mode":4,"indices":31,"material":2,"attributes":{"TEXCOORD_1":205,"COLOR_0":203,"POSITION":201,"TEXCOORD_0":204,"NORMAL":202}}],"name":"Army_Ground004"},{"primitives":[{"mode":4,"indices":32,"material":2,"attributes":{"TEXCOORD_1":210,"COLOR_0":208,"POSITION":206,"TEXCOORD_0":209,"NORMAL":207}}],"name":"Army_Ground005"},{"primitives":[{"mode":4,"indices":33,"material":2,"attributes":{"TEXCOORD_1":215,"COLOR_0":213,"POSITION":211,"TEXCOORD_0":214,"NORMAL":212}}],"name":"Army_Ground006"},{"primitives":[{"mode":4,"indices":34,"material":2,"attributes":{"TEXCOORD_1":220,"COLOR_0":218,"POSITION":216,"TEXCOORD_0":219,"NORMAL":217}}],"name":"Army_Ground007"},{"primitives":[{"mode":4,"indices":35,"material":2,"attributes":{"TEXCOORD_1":225,"COLOR_0":223,"POSITION":221,"TEXCOORD_0":224,"NORMAL":222}}],"name":"Army_Ground008"},{"primitives":[{"mode":4,"indices":36,"material":3,"attributes":{"TEXCOORD_1":230,"COLOR_0":228,"POSITION":226,"TEXCOORD_0":229,"NORMAL":227}}],"name":"Army_FloorBase004"},{"primitives":[{"mode":4,"indices":37,"material":3,"attributes":{"TEXCOORD_1":235,"COLOR_0":233,"POSITION":231,"TEXCOORD_0":234,"NORMAL":232}}],"name":"Army_Object003"},{"primitives":[{"mode":4,"indices":38,"material":4,"attributes":{"TEXCOORD_1":240,"COLOR_0":238,"POSITION":236,"TEXCOORD_0":239,"NORMAL":237}}],"name":"Army_FloorBase005"},{"primitives":[{"mode":4,"indices":39,"material":5,"attributes":{"TEXCOORD_1":245,"COLOR_0":243,"POSITION":241,"TEXCOORD_0":244,"NORMAL":242}}],"name":"Army_SideFloor001"},{"primitives":[{"mode":4,"indices":40,"material":5,"attributes":{"TEXCOORD_1":250,"COLOR_0":248,"POSITION":246,"TEXCOORD_0":249,"NORMAL":247}}],"name":"Army_SideFloor002"},{"primitives":[{"mode":4,"indices":41,"material":6,"attributes":{"TEXCOORD_1":255,"COLOR_0":253,"POSITION":251,"TEXCOORD_0":254,"NORMAL":252}}],"name":"Army_Tank001"},{"primitives":[{"mode":4,"indices":42,"material":6,"attributes":{"TEXCOORD_1":260,"COLOR_0":258,"POSITION":256,"TEXCOORD_0":259,"NORMAL":257}}],"name":"Army_Tank002"},{"primitives":[{"mode":4,"indices":43,"material":1,"attributes":{"TEXCOORD_1":265,"COLOR_0":263,"POSITION":261,"TEXCOORD_0":264,"NORMAL":262}}],"name":"Army_Alpha002"},{"primitives":[{"mode":4,"indices":44,"material":1,"attributes":{"TEXCOORD_1":270,"COLOR_0":268,"POSITION":266,"TEXCOORD_0":269,"NORMAL":267}}],"name":"Army_Alpha003"},{"primitives":[{"mode":4,"indices":45,"material":1,"attributes":{"TEXCOORD_1":275,"COLOR_0":273,"POSITION":271,"TEXCOORD_0":274,"NORMAL":272}}],"name":"Army_Alpha004"},{"primitives":[{"mode":4,"indices":46,"material":1,"attributes":{"TEXCOORD_1":280,"COLOR_0":278,"POSITION":276,"TEXCOORD_0":279,"NORMAL":277}}],"name":"Army_Alpha005"},{"primitives":[{"mode":4,"indices":47,"material":1,"attributes":{"TEXCOORD_1":285,"COLOR_0":283,"POSITION":281,"TEXCOORD_0":284,"NORMAL":282}}],"name":"Army_Alpha006"},{"primitives":[{"mode":4,"indices":48,"material":1,"attributes":{"TEXCOORD_1":290,"COLOR_0":288,"POSITION":286,"TEXCOORD_0":289,"NORMAL":287}}],"name":"Army_Alpha007"},{"primitives":[{"mode":4,"indices":49,"material":1,"attributes":{"TEXCOORD_1":295,"COLOR_0":293,"POSITION":291,"TEXCOORD_0":294,"NORMAL":292}}],"name":"Army_Alpha008"},{"primitives":[{"mode":4,"indices":50,"material":1,"attributes":{"TEXCOORD_1":300,"COLOR_0":298,"POSITION":296,"TEXCOORD_0":299,"NORMAL":297}}],"name":"Army_Alpha009"}]}